<?xml version="1.0" encoding="UTF-8" standalone="no"?>
<!DOCTYPE svg PUBLIC "-//W3C//DTD SVG 1.1//EN"
 "http://www.w3.org/Graphics/SVG/1.1/DTD/svg11.dtd">
<!-- Generated by graphviz version 2.40.1 (20161225.0304)
 -->
<!-- Title: dependencies Pages: 1 -->
<svg width="504pt" height="284pt"
 viewBox="0.00 0.00 504.00 284.00" xmlns="http://www.w3.org/2000/svg" xmlns:xlink="http://www.w3.org/1999/xlink">
<g id="graph0" class="graph" transform="scale(1 1) rotate(0) translate(4 280)">
<title>dependencies</title>
<polygon fill="#ffffff" stroke="transparent" points="-4,4 -4,-280 500,-280 500,4 -4,4"/>
<text text-anchor="start" x="227.0091" y="-42.4" font-family="sans-serif" font-weight="bold" font-size="14.00" fill="#000000">Legend</text>
<polygon fill="#ffffb3" stroke="transparent" points="14,-10 14,-30 34,-30 34,-10 14,-10"/>
<text text-anchor="start" x="37.629" y="-15.4" font-family="sans-serif" font-size="14.00" fill="#000000"> &#160;Declarations</text>
<polygon fill="#8dd3c7" stroke="transparent" points="127,-10 127,-30 147,-30 147,-10 127,-10"/>
<text text-anchor="start" x="150.7251" y="-15.4" font-family="sans-serif" font-size="14.00" fill="#000000"> &#160;Module</text>
<polygon fill="#80b1d3" stroke="transparent" points="213,-10 213,-30 233,-30 233,-10 213,-10"/>
<text text-anchor="start" x="236.7812" y="-15.4" font-family="sans-serif" font-size="14.00" fill="#000000"> &#160;Bootstrap</text>
<polygon fill="#fdb462" stroke="transparent" points="310,-10 310,-30 330,-30 330,-10 310,-10"/>
<text text-anchor="start" x="333.6732" y="-15.4" font-family="sans-serif" font-size="14.00" fill="#000000"> &#160;Providers</text>
<polygon fill="#fb8072" stroke="transparent" points="406,-10 406,-30 426,-30 426,-10 406,-10"/>
<text text-anchor="start" x="429.7258" y="-15.4" font-family="sans-serif" font-size="14.00" fill="#000000"> &#160;Exports</text>
<g id="clust1" class="cluster">
<title>cluster_SharedModule</title>
<polygon fill="none" stroke="#000000" stroke-dasharray="1,5" points="8,-70 8,-268 488,-268 488,-70 8,-70"/>
</g>
<g id="clust2" class="cluster">
<title>cluster_SharedModule_declarations</title>
<polygon fill="none" stroke="#000000" points="314,-78 314,-130 480,-130 480,-78 314,-78"/>
</g>
<g id="clust5" class="cluster">
<title>cluster_SharedModule_exports</title>
<polygon fill="none" stroke="#000000" points="101,-208 101,-260 396,-260 396,-208 101,-208"/>
</g>
<g id="clust7" class="cluster">
<title>cluster_SharedModule_providers</title>
<polygon fill="none" stroke="#000000" points="16,-78 16,-130 306,-130 306,-78 16,-78"/>
</g>
<!-- AppToolbarComponent -->
<g id="node1" class="node">
<title>AppToolbarComponent</title>
<polygon fill="#ffffb3" stroke="#000000" points="471.7576,-122 322.2424,-122 322.2424,-86 471.7576,-86 471.7576,-122"/>
<text text-anchor="middle" x="397" y="-99.8" font-family="Times,serif" font-size="14.00" fill="#000000">AppToolbarComponent</text>
</g>
<!-- SharedModule -->
<g id="node2" class="node">
<title>SharedModule</title>
<polygon fill="#8dd3c7" stroke="#000000" points="286.4231,-187 283.4231,-191 262.4231,-191 259.4231,-187 187.5769,-187 187.5769,-151 286.4231,-151 286.4231,-187"/>
<text text-anchor="middle" x="237" y="-164.8" font-family="Times,serif" font-size="14.00" fill="#000000">SharedModule</text>
</g>
<!-- AppToolbarComponent&#45;&gt;SharedModule -->
<g id="edge1" class="edge">
<title>AppToolbarComponent&#45;&gt;SharedModule</title>
<path fill="none" stroke="#000000" d="M354.875,-122.1061C354.875,-141.3391 354.875,-169 354.875,-169 354.875,-169 296.3066,-169 296.3066,-169"/>
<polygon fill="#000000" stroke="#000000" points="296.3067,-165.5001 286.3066,-169 296.3066,-172.5001 296.3067,-165.5001"/>
</g>
<!-- AppToolbarComponent  -->
<g id="node3" class="node">
<title>AppToolbarComponent </title>
<polygon fill="#fb8072" stroke="#000000" points="387.7576,-252 234.2424,-252 234.2424,-216 387.7576,-216 387.7576,-252"/>
<text text-anchor="middle" x="311" y="-229.8" font-family="Times,serif" font-size="14.00" fill="#000000">AppToolbarComponent </text>
</g>
<!-- SharedModule&#45;&gt;AppToolbarComponent  -->
<g id="edge2" class="edge">
<title>SharedModule&#45;&gt;AppToolbarComponent </title>
<path fill="none" stroke="#000000" stroke-dasharray="5,2" d="M260.2912,-187.1061C260.2912,-187.1061 260.2912,-205.991 260.2912,-205.991"/>
<polygon fill="#000000" stroke="#000000" points="256.7913,-205.9909 260.2912,-215.991 263.7913,-205.991 256.7913,-205.9909"/>
</g>
<!-- NotifierModule  -->
<g id="node4" class="node">
<title>NotifierModule </title>
<polygon fill="#fb8072" stroke="#000000" points="216.8646,-252 109.1354,-252 109.1354,-216 216.8646,-216 216.8646,-252"/>
<text text-anchor="middle" x="163" y="-229.8" font-family="Times,serif" font-size="14.00" fill="#000000">NotifierModule </text>
</g>
<!-- SharedModule&#45;&gt;NotifierModule  -->
<g id="edge3" class="edge">
<title>SharedModule&#45;&gt;NotifierModule </title>
<path fill="none" stroke="#000000" stroke-dasharray="5,2" d="M202.2355,-187.1061C202.2355,-187.1061 202.2355,-205.991 202.2355,-205.991"/>
<polygon fill="#000000" stroke="#000000" points="198.7355,-205.9909 202.2355,-215.991 205.7355,-205.991 198.7355,-205.9909"/>
</g>
<!-- ParseService -->
<g id="node5" class="node">
<title>ParseService</title>
<ellipse fill="#fdb462" stroke="#000000" cx="237" cy="-104" rx="60.8082" ry="18"/>
<text text-anchor="middle" x="237" y="-99.8" font-family="Times,serif" font-size="14.00" fill="#000000">ParseService</text>
</g>
<!-- ParseService&#45;&gt;SharedModule -->
<g id="edge4" class="edge">
<title>ParseService&#45;&gt;SharedModule</title>
<path fill="none" stroke="#000000" d="M237,-122.1061C237,-122.1061 237,-140.991 237,-140.991"/>
<polygon fill="#000000" stroke="#000000" points="233.5001,-140.9909 237,-150.991 240.5001,-140.991 233.5001,-140.9909"/>
</g>
<!-- SharedService -->
<g id="node6" class="node">
<title>SharedService</title>
<ellipse fill="#fdb462" stroke="#000000" cx="91" cy="-104" rx="66.6113" ry="18"/>
<text text-anchor="middle" x="91" y="-99.8" font-family="Times,serif" font-size="14.00" fill="#000000">SharedService</text>
</g>
<!-- SharedService&#45;&gt;SharedModule -->
<g id="edge5" class="edge">
<title>SharedService&#45;&gt;SharedModule</title>
<path fill="none" stroke="#000000" d="M133.5617,-118.104C133.5617,-137.2211 133.5617,-169 133.5617,-169 133.5617,-169 177.7044,-169 177.7044,-169"/>
<polygon fill="#000000" stroke="#000000" points="177.7044,-172.5001 187.7044,-169 177.7044,-165.5001 177.7044,-172.5001"/>
</g>
</g>
</svg>
