<?xml version="1.0" encoding="UTF-8" standalone="no"?>
<!DOCTYPE svg PUBLIC "-//W3C//DTD SVG 1.1//EN"
 "http://www.w3.org/Graphics/SVG/1.1/DTD/svg11.dtd">
<!-- Generated by graphviz version 2.40.1 (20161225.0304)
 -->
<!-- Title: dependencies Pages: 1 -->
<svg width="646pt" height="284pt"
 viewBox="0.00 0.00 646.00 284.00" xmlns="http://www.w3.org/2000/svg" xmlns:xlink="http://www.w3.org/1999/xlink">
<g id="graph0" class="graph" transform="scale(1 1) rotate(0) translate(4 280)">
<title>dependencies</title>
<polygon fill="#ffffff" stroke="transparent" points="-4,4 -4,-280 642,-280 642,4 -4,4"/>
<text text-anchor="start" x="298.0091" y="-42.4" font-family="sans-serif" font-weight="bold" font-size="14.00" fill="#000000">Legend</text>
<polygon fill="#ffffb3" stroke="transparent" points="85,-10 85,-30 105,-30 105,-10 85,-10"/>
<text text-anchor="start" x="108.629" y="-15.4" font-family="sans-serif" font-size="14.00" fill="#000000"> &#160;Declarations</text>
<polygon fill="#8dd3c7" stroke="transparent" points="198,-10 198,-30 218,-30 218,-10 198,-10"/>
<text text-anchor="start" x="221.7251" y="-15.4" font-family="sans-serif" font-size="14.00" fill="#000000"> &#160;Module</text>
<polygon fill="#80b1d3" stroke="transparent" points="284,-10 284,-30 304,-30 304,-10 284,-10"/>
<text text-anchor="start" x="307.7812" y="-15.4" font-family="sans-serif" font-size="14.00" fill="#000000"> &#160;Bootstrap</text>
<polygon fill="#fdb462" stroke="transparent" points="381,-10 381,-30 401,-30 401,-10 381,-10"/>
<text text-anchor="start" x="404.6732" y="-15.4" font-family="sans-serif" font-size="14.00" fill="#000000"> &#160;Providers</text>
<polygon fill="#fb8072" stroke="transparent" points="477,-10 477,-30 497,-30 497,-10 477,-10"/>
<text text-anchor="start" x="500.7258" y="-15.4" font-family="sans-serif" font-size="14.00" fill="#000000"> &#160;Exports</text>
<g id="clust1" class="cluster">
<title>cluster_SharedModule</title>
<polygon fill="none" stroke="#000000" stroke-dasharray="1,5" points="8,-70 8,-268 630,-268 630,-70 8,-70"/>
</g>
<g id="clust2" class="cluster">
<title>cluster_SharedModule_declarations</title>
<polygon fill="none" stroke="#000000" points="456,-78 456,-130 622,-130 622,-78 456,-78"/>
</g>
<g id="clust4" class="cluster">
<title>cluster_SharedModule_imports</title>
<polygon fill="none" stroke="#000000" points="314,-78 314,-130 448,-130 448,-78 314,-78"/>
</g>
<g id="clust5" class="cluster">
<title>cluster_SharedModule_exports</title>
<polygon fill="none" stroke="#000000" points="115,-208 115,-260 549,-260 549,-208 115,-208"/>
</g>
<g id="clust7" class="cluster">
<title>cluster_SharedModule_providers</title>
<polygon fill="none" stroke="#000000" points="16,-78 16,-130 306,-130 306,-78 16,-78"/>
</g>
<!-- AppToolbarComponent -->
<g id="node1" class="node">
<title>AppToolbarComponent</title>
<polygon fill="#ffffb3" stroke="#000000" points="613.7576,-122 464.2424,-122 464.2424,-86 613.7576,-86 613.7576,-122"/>
<text text-anchor="middle" x="539" y="-99.8" font-family="Times,serif" font-size="14.00" fill="#000000">AppToolbarComponent</text>
</g>
<!-- SharedModule -->
<g id="node2" class="node">
<title>SharedModule</title>
<polygon fill="#8dd3c7" stroke="#000000" points="358.4231,-187 355.4231,-191 334.4231,-191 331.4231,-187 259.5769,-187 259.5769,-151 358.4231,-151 358.4231,-187"/>
<text text-anchor="middle" x="309" y="-164.8" font-family="Times,serif" font-size="14.00" fill="#000000">SharedModule</text>
</g>
<!-- AppToolbarComponent&#45;&gt;SharedModule -->
<g id="edge1" class="edge">
<title>AppToolbarComponent&#45;&gt;SharedModule</title>
<path fill="none" stroke="#000000" d="M502.375,-122.0225C502.375,-139.3734 502.375,-163 502.375,-163 502.375,-163 368.297,-163 368.297,-163"/>
<polygon fill="#000000" stroke="#000000" points="368.2971,-159.5001 358.297,-163 368.297,-166.5001 368.2971,-159.5001"/>
</g>
<!-- AppToolbarComponent  -->
<g id="node4" class="node">
<title>AppToolbarComponent </title>
<polygon fill="#fb8072" stroke="#000000" points="540.7576,-252 387.2424,-252 387.2424,-216 540.7576,-216 540.7576,-252"/>
<text text-anchor="middle" x="464" y="-229.8" font-family="Times,serif" font-size="14.00" fill="#000000">AppToolbarComponent </text>
</g>
<!-- SharedModule&#45;&gt;AppToolbarComponent  -->
<g id="edge3" class="edge">
<title>SharedModule&#45;&gt;AppToolbarComponent </title>
<path fill="none" stroke="#000000" stroke-dasharray="5,2" d="M358.2596,-175C385.402,-175 413.6478,-175 413.6478,-175 413.6478,-175 413.6478,-205.9775 413.6478,-205.9775"/>
<polygon fill="#000000" stroke="#000000" points="410.1479,-205.9774 413.6478,-215.9775 417.1479,-205.9775 410.1479,-205.9774"/>
</g>
<!-- DataTableModule  -->
<g id="node5" class="node">
<title>DataTableModule </title>
<polygon fill="#fb8072" stroke="#000000" points="369.8491,-252 248.1509,-252 248.1509,-216 369.8491,-216 369.8491,-252"/>
<text text-anchor="middle" x="309" y="-229.8" font-family="Times,serif" font-size="14.00" fill="#000000">DataTableModule </text>
</g>
<!-- SharedModule&#45;&gt;DataTableModule  -->
<g id="edge4" class="edge">
<title>SharedModule&#45;&gt;DataTableModule </title>
<path fill="none" stroke="#000000" stroke-dasharray="5,2" d="M309,-187.1061C309,-187.1061 309,-205.991 309,-205.991"/>
<polygon fill="#000000" stroke="#000000" points="305.5001,-205.9909 309,-215.991 312.5001,-205.991 305.5001,-205.9909"/>
</g>
<!-- NotifierModule  -->
<g id="node6" class="node">
<title>NotifierModule </title>
<polygon fill="#fb8072" stroke="#000000" points="230.8646,-252 123.1354,-252 123.1354,-216 230.8646,-216 230.8646,-252"/>
<text text-anchor="middle" x="177" y="-229.8" font-family="Times,serif" font-size="14.00" fill="#000000">NotifierModule </text>
</g>
<!-- SharedModule&#45;&gt;NotifierModule  -->
<g id="edge5" class="edge">
<title>SharedModule&#45;&gt;NotifierModule </title>
<path fill="none" stroke="#000000" stroke-dasharray="5,2" d="M259.5959,-175C232.1095,-175 203.389,-175 203.389,-175 203.389,-175 203.389,-205.9775 203.389,-205.9775"/>
<polygon fill="#000000" stroke="#000000" points="199.8891,-205.9774 203.389,-215.9775 206.8891,-205.9775 199.8891,-205.9774"/>
</g>
<!-- DataTableModule -->
<g id="node3" class="node">
<title>DataTableModule</title>
<polygon fill="#8dd3c7" stroke="#000000" points="439.8487,-122 436.8487,-126 415.8487,-126 412.8487,-122 322.1513,-122 322.1513,-86 439.8487,-86 439.8487,-122"/>
<text text-anchor="middle" x="381" y="-99.8" font-family="Times,serif" font-size="14.00" fill="#000000">DataTableModule</text>
</g>
<!-- DataTableModule&#45;&gt;SharedModule -->
<g id="edge2" class="edge">
<title>DataTableModule&#45;&gt;SharedModule</title>
<path fill="none" stroke="#000000" d="M340.1434,-122.1061C340.1434,-122.1061 340.1434,-140.991 340.1434,-140.991"/>
<polygon fill="#000000" stroke="#000000" points="336.6435,-140.9909 340.1434,-150.991 343.6435,-140.991 336.6435,-140.9909"/>
</g>
<!-- ParseService -->
<g id="node7" class="node">
<title>ParseService</title>
<ellipse fill="#fdb462" stroke="#000000" cx="237" cy="-104" rx="60.8082" ry="18"/>
<text text-anchor="middle" x="237" y="-99.8" font-family="Times,serif" font-size="14.00" fill="#000000">ParseService</text>
</g>
<!-- ParseService&#45;&gt;SharedModule -->
<g id="edge6" class="edge">
<title>ParseService&#45;&gt;SharedModule</title>
<path fill="none" stroke="#000000" d="M278.8465,-117.1537C278.8465,-117.1537 278.8465,-140.6938 278.8465,-140.6938"/>
<polygon fill="#000000" stroke="#000000" points="275.3466,-140.6938 278.8465,-150.6938 282.3466,-140.6939 275.3466,-140.6938"/>
</g>
<!-- SharedService -->
<g id="node8" class="node">
<title>SharedService</title>
<ellipse fill="#fdb462" stroke="#000000" cx="91" cy="-104" rx="66.6113" ry="18"/>
<text text-anchor="middle" x="91" y="-99.8" font-family="Times,serif" font-size="14.00" fill="#000000">SharedService</text>
</g>
<!-- SharedService&#45;&gt;SharedModule -->
<g id="edge7" class="edge">
<title>SharedService&#45;&gt;SharedModule</title>
<path fill="none" stroke="#000000" d="M140.5617,-116.2248C140.5617,-133.5063 140.5617,-163 140.5617,-163 140.5617,-163 249.374,-163 249.374,-163"/>
<polygon fill="#000000" stroke="#000000" points="249.374,-166.5001 259.374,-163 249.3739,-159.5001 249.374,-166.5001"/>
</g>
</g>
</svg>
