<?xml version="1.0" encoding="UTF-8" standalone="no"?>
<!DOCTYPE svg PUBLIC "-//W3C//DTD SVG 1.1//EN"
 "http://www.w3.org/Graphics/SVG/1.1/DTD/svg11.dtd">
<!-- Generated by graphviz version 2.40.1 (20161225.0304)
 -->
<!-- Title: dependencies Pages: 1 -->
<svg width="504pt" height="211pt"
 viewBox="0.00 0.00 504.00 211.00" xmlns="http://www.w3.org/2000/svg" xmlns:xlink="http://www.w3.org/1999/xlink">
<g id="graph0" class="graph" transform="scale(1 1) rotate(0) translate(4 207)">
<title>dependencies</title>
<polygon fill="#ffffff" stroke="transparent" points="-4,4 -4,-207 500,-207 500,4 -4,4"/>
<text text-anchor="start" x="227.0091" y="-42.4" font-family="sans-serif" font-weight="bold" font-size="14.00" fill="#000000">Legend</text>
<polygon fill="#ffffb3" stroke="transparent" points="14,-10 14,-30 34,-30 34,-10 14,-10"/>
<text text-anchor="start" x="37.629" y="-15.4" font-family="sans-serif" font-size="14.00" fill="#000000"> &#160;Declarations</text>
<polygon fill="#8dd3c7" stroke="transparent" points="127,-10 127,-30 147,-30 147,-10 127,-10"/>
<text text-anchor="start" x="150.7251" y="-15.4" font-family="sans-serif" font-size="14.00" fill="#000000"> &#160;Module</text>
<polygon fill="#80b1d3" stroke="transparent" points="213,-10 213,-30 233,-30 233,-10 213,-10"/>
<text text-anchor="start" x="236.7812" y="-15.4" font-family="sans-serif" font-size="14.00" fill="#000000"> &#160;Bootstrap</text>
<polygon fill="#fdb462" stroke="transparent" points="310,-10 310,-30 330,-30 330,-10 310,-10"/>
<text text-anchor="start" x="333.6732" y="-15.4" font-family="sans-serif" font-size="14.00" fill="#000000"> &#160;Providers</text>
<polygon fill="#fb8072" stroke="transparent" points="406,-10 406,-30 426,-30 426,-10 406,-10"/>
<text text-anchor="start" x="429.7258" y="-15.4" font-family="sans-serif" font-size="14.00" fill="#000000"> &#160;Exports</text>
<g id="clust1" class="cluster">
<title>cluster_NotifierModule</title>
<polygon fill="none" stroke="#000000" stroke-dasharray="1,5" points="86,-70 86,-195 410,-195 410,-70 86,-70"/>
</g>
<g id="clust2" class="cluster">
<title>cluster_NotifierModule_declarations</title>
<polygon fill="none" stroke="#000000" points="260,-78 260,-130 402,-130 402,-78 260,-78"/>
</g>
<g id="clust7" class="cluster">
<title>cluster_NotifierModule_providers</title>
<polygon fill="none" stroke="#000000" points="94,-78 94,-130 252,-130 252,-78 94,-78"/>
</g>
<!-- NotifierComponent -->
<g id="node1" class="node">
<title>NotifierComponent</title>
<polygon fill="#ffffb3" stroke="#000000" points="393.6471,-122 268.3529,-122 268.3529,-86 393.6471,-86 393.6471,-122"/>
<text text-anchor="middle" x="331" y="-99.8" font-family="Times,serif" font-size="14.00" fill="#000000">NotifierComponent</text>
</g>
<!-- NotifierModule -->
<g id="node2" class="node">
<title>NotifierModule</title>
<polygon fill="#8dd3c7" stroke="#000000" points="303.8641,-187 300.8641,-191 279.8641,-191 276.8641,-187 200.1359,-187 200.1359,-151 303.8641,-151 303.8641,-187"/>
<text text-anchor="middle" x="252" y="-164.8" font-family="Times,serif" font-size="14.00" fill="#000000">NotifierModule</text>
</g>
<!-- NotifierComponent&#45;&gt;NotifierModule -->
<g id="edge1" class="edge">
<title>NotifierComponent&#45;&gt;NotifierModule</title>
<path fill="none" stroke="#000000" d="M286.0544,-122.1061C286.0544,-122.1061 286.0544,-140.991 286.0544,-140.991"/>
<polygon fill="#000000" stroke="#000000" points="282.5544,-140.9909 286.0544,-150.991 289.5544,-140.991 282.5544,-140.9909"/>
</g>
<!-- NotifierService -->
<g id="node3" class="node">
<title>NotifierService</title>
<ellipse fill="#fdb462" stroke="#000000" cx="173" cy="-104" rx="70.6181" ry="18"/>
<text text-anchor="middle" x="173" y="-99.8" font-family="Times,serif" font-size="14.00" fill="#000000">NotifierService</text>
</g>
<!-- NotifierService&#45;&gt;NotifierModule -->
<g id="edge2" class="edge">
<title>NotifierService&#45;&gt;NotifierModule</title>
<path fill="none" stroke="#000000" d="M221.8135,-117.1537C221.8135,-117.1537 221.8135,-140.6938 221.8135,-140.6938"/>
<polygon fill="#000000" stroke="#000000" points="218.3136,-140.6938 221.8135,-150.6938 225.3136,-140.6939 218.3136,-140.6938"/>
</g>
</g>
</svg>
