<?xml version="1.0" encoding="UTF-8" standalone="no"?>
<!DOCTYPE svg PUBLIC "-//W3C//DTD SVG 1.1//EN"
 "http://www.w3.org/Graphics/SVG/1.1/DTD/svg11.dtd">
<!-- Generated by graphviz version 2.40.1 (20161225.0304)
 -->
<!-- Title: dependencies Pages: 1 -->
<svg width="2155pt" height="284pt"
 viewBox="0.00 0.00 2155.00 284.00" xmlns="http://www.w3.org/2000/svg" xmlns:xlink="http://www.w3.org/1999/xlink">
<g id="graph0" class="graph" transform="scale(1 1) rotate(0) translate(4 280)">
<title>dependencies</title>
<polygon fill="#ffffff" stroke="transparent" points="-4,4 -4,-280 2151,-280 2151,4 -4,4"/>
<text text-anchor="start" x="1052.5091" y="-42.4" font-family="sans-serif" font-weight="bold" font-size="14.00" fill="#000000">Legend</text>
<polygon fill="#ffffb3" stroke="transparent" points="839.5,-10 839.5,-30 859.5,-30 859.5,-10 839.5,-10"/>
<text text-anchor="start" x="863.129" y="-15.4" font-family="sans-serif" font-size="14.00" fill="#000000"> &#160;Declarations</text>
<polygon fill="#8dd3c7" stroke="transparent" points="952.5,-10 952.5,-30 972.5,-30 972.5,-10 952.5,-10"/>
<text text-anchor="start" x="976.2251" y="-15.4" font-family="sans-serif" font-size="14.00" fill="#000000"> &#160;Module</text>
<polygon fill="#80b1d3" stroke="transparent" points="1038.5,-10 1038.5,-30 1058.5,-30 1058.5,-10 1038.5,-10"/>
<text text-anchor="start" x="1062.2812" y="-15.4" font-family="sans-serif" font-size="14.00" fill="#000000"> &#160;Bootstrap</text>
<polygon fill="#fdb462" stroke="transparent" points="1135.5,-10 1135.5,-30 1155.5,-30 1155.5,-10 1135.5,-10"/>
<text text-anchor="start" x="1159.1732" y="-15.4" font-family="sans-serif" font-size="14.00" fill="#000000"> &#160;Providers</text>
<polygon fill="#fb8072" stroke="transparent" points="1231.5,-10 1231.5,-30 1251.5,-30 1251.5,-10 1231.5,-10"/>
<text text-anchor="start" x="1255.2258" y="-15.4" font-family="sans-serif" font-size="14.00" fill="#000000"> &#160;Exports</text>
<g id="clust1" class="cluster">
<title>cluster_AppModule</title>
<polygon fill="none" stroke="#000000" stroke-dasharray="1,5" points="8,-70 8,-268 2139,-268 2139,-70 8,-70"/>
</g>
<g id="clust2" class="cluster">
<title>cluster_AppModule_declarations</title>
<polygon fill="none" stroke="#000000" points="285,-78 285,-130 2131,-130 2131,-78 285,-78"/>
</g>
<g id="clust14" class="cluster">
<title>cluster_AppModule_imports</title>
<polygon fill="none" stroke="#000000" points="16,-78 16,-130 277,-130 277,-78 16,-78"/>
</g>
<g id="clust16" class="cluster">
<title>cluster_AppModule_bootstrap</title>
<polygon fill="none" stroke="#000000" points="1049,-208 1049,-260 1173,-260 1173,-208 1049,-208"/>
</g>
<!-- AccordionComponent -->
<g id="node1" class="node">
<title>AccordionComponent</title>
<polygon fill="#ffffb3" stroke="#000000" points="2123.42,-122 1982.58,-122 1982.58,-86 2123.42,-86 2123.42,-122"/>
<text text-anchor="middle" x="2053" y="-99.8" font-family="Times,serif" font-size="14.00" fill="#000000">AccordionComponent</text>
</g>
<!-- AppModule -->
<g id="node12" class="node">
<title>AppModule</title>
<polygon fill="#8dd3c7" stroke="#000000" points="1152.6571,-187 1149.6571,-191 1128.6571,-191 1125.6571,-187 1069.3429,-187 1069.3429,-151 1152.6571,-151 1152.6571,-187"/>
<text text-anchor="middle" x="1111" y="-164.8" font-family="Times,serif" font-size="14.00" fill="#000000">AppModule</text>
</g>
<!-- AccordionComponent&#45;&gt;AppModule -->
<g id="edge1" class="edge">
<title>AccordionComponent&#45;&gt;AppModule</title>
<path fill="none" stroke="#000000" d="M2053,-122.0908C2053,-145.1328 2053,-182 2053,-182 2053,-182 1162.692,-182 1162.692,-182"/>
<polygon fill="#000000" stroke="#000000" points="1162.6921,-178.5001 1152.692,-182 1162.692,-185.5001 1162.6921,-178.5001"/>
</g>
<!-- AppComponent -->
<g id="node2" class="node">
<title>AppComponent</title>
<polygon fill="#ffffb3" stroke="#000000" points="1964.9399,-122 1859.0601,-122 1859.0601,-86 1964.9399,-86 1964.9399,-122"/>
<text text-anchor="middle" x="1912" y="-99.8" font-family="Times,serif" font-size="14.00" fill="#000000">AppComponent</text>
</g>
<!-- AppComponent&#45;&gt;AppModule -->
<g id="edge2" class="edge">
<title>AppComponent&#45;&gt;AppModule</title>
<path fill="none" stroke="#000000" d="M1912,-122.0449C1912,-143.6623 1912,-177 1912,-177 1912,-177 1162.6576,-177 1162.6576,-177"/>
<polygon fill="#000000" stroke="#000000" points="1162.6576,-173.5001 1152.6576,-177 1162.6575,-180.5001 1162.6576,-173.5001"/>
</g>
<!-- FabButtonComponent -->
<g id="node3" class="node">
<title>FabButtonComponent</title>
<polygon fill="#ffffb3" stroke="#000000" points="1841.4481,-122 1700.5519,-122 1700.5519,-86 1841.4481,-86 1841.4481,-122"/>
<text text-anchor="middle" x="1771" y="-99.8" font-family="Times,serif" font-size="14.00" fill="#000000">FabButtonComponent</text>
</g>
<!-- FabButtonComponent&#45;&gt;AppModule -->
<g id="edge3" class="edge">
<title>FabButtonComponent&#45;&gt;AppModule</title>
<path fill="none" stroke="#000000" d="M1771,-122.2228C1771,-142.3652 1771,-172 1771,-172 1771,-172 1162.7867,-172 1162.7867,-172"/>
<polygon fill="#000000" stroke="#000000" points="1162.7867,-168.5001 1152.7867,-172 1162.7866,-175.5001 1162.7867,-168.5001"/>
</g>
<!-- LoginComponent -->
<g id="node4" class="node">
<title>LoginComponent</title>
<polygon fill="#ffffb3" stroke="#000000" points="1682.2758,-122 1567.7242,-122 1567.7242,-86 1682.2758,-86 1682.2758,-122"/>
<text text-anchor="middle" x="1625" y="-99.8" font-family="Times,serif" font-size="14.00" fill="#000000">LoginComponent</text>
</g>
<!-- LoginComponent&#45;&gt;AppModule -->
<g id="edge4" class="edge">
<title>LoginComponent&#45;&gt;AppModule</title>
<path fill="none" stroke="#000000" d="M1625,-122.2222C1625,-140.8285 1625,-167 1625,-167 1625,-167 1163.0628,-167 1163.0628,-167"/>
<polygon fill="#000000" stroke="#000000" points="1163.0628,-163.5001 1153.0628,-167 1163.0627,-170.5001 1163.0628,-163.5001"/>
</g>
<!-- NotFoundComponent -->
<g id="node5" class="node">
<title>NotFoundComponent</title>
<polygon fill="#ffffb3" stroke="#000000" points="1550.1122,-122 1411.8878,-122 1411.8878,-86 1550.1122,-86 1550.1122,-122"/>
<text text-anchor="middle" x="1481" y="-99.8" font-family="Times,serif" font-size="14.00" fill="#000000">NotFoundComponent</text>
</g>
<!-- NotFoundComponent&#45;&gt;AppModule -->
<g id="edge5" class="edge">
<title>NotFoundComponent&#45;&gt;AppModule</title>
<path fill="none" stroke="#000000" d="M1481,-122.0336C1481,-139.0597 1481,-162 1481,-162 1481,-162 1162.7245,-162 1162.7245,-162"/>
<polygon fill="#000000" stroke="#000000" points="1162.7245,-158.5001 1152.7245,-162 1162.7244,-165.5001 1162.7245,-158.5001"/>
</g>
<!-- SnifferDataDetailComponent -->
<g id="node6" class="node">
<title>SnifferDataDetailComponent</title>
<polygon fill="#ffffb3" stroke="#000000" points="1394.3361,-122 1213.6639,-122 1213.6639,-86 1394.3361,-86 1394.3361,-122"/>
<text text-anchor="middle" x="1304" y="-99.8" font-family="Times,serif" font-size="14.00" fill="#000000">SnifferDataDetailComponent</text>
</g>
<!-- SnifferDataDetailComponent&#45;&gt;AppModule -->
<g id="edge6" class="edge">
<title>SnifferDataDetailComponent&#45;&gt;AppModule</title>
<path fill="none" stroke="#000000" d="M1304,-122.2396C1304,-137.5706 1304,-157 1304,-157 1304,-157 1162.8781,-157 1162.8781,-157"/>
<polygon fill="#000000" stroke="#000000" points="1162.8782,-153.5001 1152.8781,-157 1162.8781,-160.5001 1162.8782,-153.5001"/>
</g>
<!-- SnifferDataListComponent -->
<g id="node7" class="node">
<title>SnifferDataListComponent</title>
<polygon fill="#ffffb3" stroke="#000000" points="1195.4073,-122 1026.5927,-122 1026.5927,-86 1195.4073,-86 1195.4073,-122"/>
<text text-anchor="middle" x="1111" y="-99.8" font-family="Times,serif" font-size="14.00" fill="#000000">SnifferDataListComponent</text>
</g>
<!-- SnifferDataListComponent&#45;&gt;AppModule -->
<g id="edge7" class="edge">
<title>SnifferDataListComponent&#45;&gt;AppModule</title>
<path fill="none" stroke="#000000" d="M1111,-122.1061C1111,-122.1061 1111,-140.991 1111,-140.991"/>
<polygon fill="#000000" stroke="#000000" points="1107.5001,-140.9909 1111,-150.991 1114.5001,-140.991 1107.5001,-140.9909"/>
</g>
<!-- SnifferFormComponent -->
<g id="node8" class="node">
<title>SnifferFormComponent</title>
<polygon fill="#ffffb3" stroke="#000000" points="1009.0365,-122 858.9635,-122 858.9635,-86 1009.0365,-86 1009.0365,-122"/>
<text text-anchor="middle" x="934" y="-99.8" font-family="Times,serif" font-size="14.00" fill="#000000">SnifferFormComponent</text>
</g>
<!-- SnifferFormComponent&#45;&gt;AppModule -->
<g id="edge8" class="edge">
<title>SnifferFormComponent&#45;&gt;AppModule</title>
<path fill="none" stroke="#000000" d="M934,-122.2396C934,-137.5706 934,-157 934,-157 934,-157 1059.0535,-157 1059.0535,-157"/>
<polygon fill="#000000" stroke="#000000" points="1059.0535,-160.5001 1069.0535,-157 1059.0534,-153.5001 1059.0535,-160.5001"/>
</g>
<!-- SnifferTokenFormComponent -->
<g id="node9" class="node">
<title>SnifferTokenFormComponent</title>
<polygon fill="#ffffb3" stroke="#000000" points="841.3032,-122 654.6968,-122 654.6968,-86 841.3032,-86 841.3032,-122"/>
<text text-anchor="middle" x="748" y="-99.8" font-family="Times,serif" font-size="14.00" fill="#000000">SnifferTokenFormComponent</text>
</g>
<!-- SnifferTokenFormComponent&#45;&gt;AppModule -->
<g id="edge9" class="edge">
<title>SnifferTokenFormComponent&#45;&gt;AppModule</title>
<path fill="none" stroke="#000000" d="M748,-122.0336C748,-139.0597 748,-162 748,-162 748,-162 1059.0047,-162 1059.0047,-162"/>
<polygon fill="#000000" stroke="#000000" points="1059.0047,-165.5001 1069.0047,-162 1059.0046,-158.5001 1059.0047,-165.5001"/>
</g>
<!-- SnifferTokenListComponent -->
<g id="node10" class="node">
<title>SnifferTokenListComponent</title>
<polygon fill="#ffffb3" stroke="#000000" points="636.7478,-122 459.2522,-122 459.2522,-86 636.7478,-86 636.7478,-122"/>
<text text-anchor="middle" x="548" y="-99.8" font-family="Times,serif" font-size="14.00" fill="#000000">SnifferTokenListComponent</text>
</g>
<!-- SnifferTokenListComponent&#45;&gt;AppModule -->
<g id="edge10" class="edge">
<title>SnifferTokenListComponent&#45;&gt;AppModule</title>
<path fill="none" stroke="#000000" d="M548,-122.2222C548,-140.8285 548,-167 548,-167 548,-167 1059.1435,-167 1059.1435,-167"/>
<polygon fill="#000000" stroke="#000000" points="1059.1435,-170.5001 1069.1435,-167 1059.1434,-163.5001 1059.1435,-170.5001"/>
</g>
<!-- SniffersListComponent -->
<g id="node11" class="node">
<title>SniffersListComponent</title>
<polygon fill="#ffffb3" stroke="#000000" points="440.9256,-122 293.0744,-122 293.0744,-86 440.9256,-86 440.9256,-122"/>
<text text-anchor="middle" x="367" y="-99.8" font-family="Times,serif" font-size="14.00" fill="#000000">SniffersListComponent</text>
</g>
<!-- SniffersListComponent&#45;&gt;AppModule -->
<g id="edge11" class="edge">
<title>SniffersListComponent&#45;&gt;AppModule</title>
<path fill="none" stroke="#000000" d="M367,-122.2228C367,-142.3652 367,-172 367,-172 367,-172 1059.1367,-172 1059.1367,-172"/>
<polygon fill="#000000" stroke="#000000" points="1059.1368,-175.5001 1069.1367,-172 1059.1367,-168.5001 1059.1368,-175.5001"/>
</g>
<!-- AppComponent  -->
<g id="node15" class="node">
<title>AppComponent </title>
<polygon fill="#80b1d3" stroke="#000000" points="1165.439,-252 1056.561,-252 1056.561,-216 1165.439,-216 1165.439,-252"/>
<text text-anchor="middle" x="1111" y="-229.8" font-family="Times,serif" font-size="14.00" fill="#000000">AppComponent </text>
</g>
<!-- AppModule&#45;&gt;AppComponent  -->
<g id="edge14" class="edge">
<title>AppModule&#45;&gt;AppComponent </title>
<path fill="none" stroke="#000000" stroke-dasharray="1,5" d="M1111,-187.1061C1111,-187.1061 1111,-205.991 1111,-205.991"/>
<polygon fill="#000000" stroke="#000000" points="1107.5001,-205.9909 1111,-215.991 1114.5001,-205.991 1107.5001,-205.9909"/>
</g>
<!-- AppRoutingModule -->
<g id="node13" class="node">
<title>AppRoutingModule</title>
<polygon fill="#8dd3c7" stroke="#000000" points="269.2744,-122 266.2744,-126 245.2744,-126 242.2744,-122 140.7256,-122 140.7256,-86 269.2744,-86 269.2744,-122"/>
<text text-anchor="middle" x="205" y="-99.8" font-family="Times,serif" font-size="14.00" fill="#000000">AppRoutingModule</text>
</g>
<!-- AppRoutingModule&#45;&gt;AppModule -->
<g id="edge12" class="edge">
<title>AppRoutingModule&#45;&gt;AppModule</title>
<path fill="none" stroke="#000000" d="M205,-122.0449C205,-143.6623 205,-177 205,-177 205,-177 1059.1188,-177 1059.1188,-177"/>
<polygon fill="#000000" stroke="#000000" points="1059.1188,-180.5001 1069.1188,-177 1059.1187,-173.5001 1059.1188,-180.5001"/>
</g>
<!-- SharedModule -->
<g id="node14" class="node">
<title>SharedModule</title>
<polygon fill="#8dd3c7" stroke="#000000" points="122.4231,-122 119.4231,-126 98.4231,-126 95.4231,-122 23.5769,-122 23.5769,-86 122.4231,-86 122.4231,-122"/>
<text text-anchor="middle" x="73" y="-99.8" font-family="Times,serif" font-size="14.00" fill="#000000">SharedModule</text>
</g>
<!-- SharedModule&#45;&gt;AppModule -->
<g id="edge13" class="edge">
<title>SharedModule&#45;&gt;AppModule</title>
<path fill="none" stroke="#000000" d="M73,-122.0908C73,-145.1328 73,-182 73,-182 73,-182 1059.0236,-182 1059.0236,-182"/>
<polygon fill="#000000" stroke="#000000" points="1059.0236,-185.5001 1069.0236,-182 1059.0235,-178.5001 1059.0236,-185.5001"/>
</g>
</g>
</svg>
