<?xml version="1.0" encoding="UTF-8" standalone="no"?>
<!DOCTYPE svg PUBLIC "-//W3C//DTD SVG 1.1//EN"
 "http://www.w3.org/Graphics/SVG/1.1/DTD/svg11.dtd">
<!-- Generated by graphviz version 2.40.1 (20161225.0304)
 -->
<!-- Title: dependencies Pages: 1 -->
<svg width="2790pt" height="360pt"
 viewBox="0.00 0.00 2790.00 360.00" xmlns="http://www.w3.org/2000/svg" xmlns:xlink="http://www.w3.org/1999/xlink">
<g id="graph0" class="graph" transform="scale(1 1) rotate(0) translate(4 356)">
<title>dependencies</title>
<polygon fill="#ffffff" stroke="transparent" points="-4,4 -4,-356 2786,-356 2786,4 -4,4"/>
<text text-anchor="start" x="1370.0091" y="-42.4" font-family="sans-serif" font-weight="bold" font-size="14.00" fill="#000000">Legend</text>
<polygon fill="#ffffb3" stroke="transparent" points="1157,-10 1157,-30 1177,-30 1177,-10 1157,-10"/>
<text text-anchor="start" x="1180.629" y="-15.4" font-family="sans-serif" font-size="14.00" fill="#000000"> &#160;Declarations</text>
<polygon fill="#8dd3c7" stroke="transparent" points="1270,-10 1270,-30 1290,-30 1290,-10 1270,-10"/>
<text text-anchor="start" x="1293.7251" y="-15.4" font-family="sans-serif" font-size="14.00" fill="#000000"> &#160;Module</text>
<polygon fill="#80b1d3" stroke="transparent" points="1356,-10 1356,-30 1376,-30 1376,-10 1356,-10"/>
<text text-anchor="start" x="1379.7812" y="-15.4" font-family="sans-serif" font-size="14.00" fill="#000000"> &#160;Bootstrap</text>
<polygon fill="#fdb462" stroke="transparent" points="1453,-10 1453,-30 1473,-30 1473,-10 1453,-10"/>
<text text-anchor="start" x="1476.6732" y="-15.4" font-family="sans-serif" font-size="14.00" fill="#000000"> &#160;Providers</text>
<polygon fill="#fb8072" stroke="transparent" points="1549,-10 1549,-30 1569,-30 1569,-10 1549,-10"/>
<text text-anchor="start" x="1572.7258" y="-15.4" font-family="sans-serif" font-size="14.00" fill="#000000"> &#160;Exports</text>
<g id="clust1" class="cluster">
<title>cluster_AppModule</title>
<polygon fill="none" stroke="#000000" stroke-dasharray="1,5" points="311,-146 311,-344 2442,-344 2442,-146 311,-146"/>
</g>
<g id="clust2" class="cluster">
<title>cluster_AppModule_declarations</title>
<polygon fill="none" stroke="#000000" points="588,-154 588,-206 2434,-206 2434,-154 588,-154"/>
</g>
<g id="clust14" class="cluster">
<title>cluster_AppModule_imports</title>
<polygon fill="none" stroke="#000000" points="319,-154 319,-206 580,-206 580,-154 319,-154"/>
</g>
<g id="clust16" class="cluster">
<title>cluster_AppModule_bootstrap</title>
<polygon fill="none" stroke="#000000" points="1352,-284 1352,-336 1476,-336 1476,-284 1352,-284"/>
</g>
<g id="clust24" class="cluster">
<title>cluster_NotifierModule</title>
<polygon fill="none" stroke="#000000" stroke-dasharray="1,5" points="2450,-70 2450,-206 2774,-206 2774,-70 2450,-70"/>
</g>
<g id="clust25" class="cluster">
<title>cluster_NotifierModule_declarations</title>
<polygon fill="none" stroke="#000000" points="2624,-78 2624,-130 2766,-130 2766,-78 2624,-78"/>
</g>
<g id="clust30" class="cluster">
<title>cluster_NotifierModule_providers</title>
<polygon fill="none" stroke="#000000" points="2458,-78 2458,-130 2616,-130 2616,-78 2458,-78"/>
</g>
<g id="clust31" class="cluster">
<title>cluster_SharedModule</title>
<polygon fill="none" stroke="#000000" stroke-dasharray="1,5" points="8,-70 8,-138 791,-138 791,-70 8,-70"/>
</g>
<g id="clust32" class="cluster">
<title>cluster_SharedModule_declarations</title>
<polygon fill="none" stroke="#000000" points="617,-78 617,-130 783,-130 783,-78 617,-78"/>
</g>
<g id="clust35" class="cluster">
<title>cluster_SharedModule_exports</title>
<polygon fill="none" stroke="#000000" points="314,-78 314,-130 609,-130 609,-78 314,-78"/>
</g>
<g id="clust37" class="cluster">
<title>cluster_SharedModule_providers</title>
<polygon fill="none" stroke="#000000" points="16,-78 16,-130 306,-130 306,-78 16,-78"/>
</g>
<!-- AccordionComponent -->
<g id="node1" class="node">
<title>AccordionComponent</title>
<polygon fill="#ffffb3" stroke="#000000" points="2426.42,-198 2285.58,-198 2285.58,-162 2426.42,-162 2426.42,-198"/>
<text text-anchor="middle" x="2356" y="-175.8" font-family="Times,serif" font-size="14.00" fill="#000000">AccordionComponent</text>
</g>
<!-- AppModule -->
<g id="node12" class="node">
<title>AppModule</title>
<polygon fill="#8dd3c7" stroke="#000000" points="1455.6571,-263 1452.6571,-267 1431.6571,-267 1428.6571,-263 1372.3429,-263 1372.3429,-227 1455.6571,-227 1455.6571,-263"/>
<text text-anchor="middle" x="1414" y="-240.8" font-family="Times,serif" font-size="14.00" fill="#000000">AppModule</text>
</g>
<!-- AccordionComponent&#45;&gt;AppModule -->
<g id="edge1" class="edge">
<title>AccordionComponent&#45;&gt;AppModule</title>
<path fill="none" stroke="#000000" d="M2356,-198.0908C2356,-221.1328 2356,-258 2356,-258 2356,-258 1465.692,-258 1465.692,-258"/>
<polygon fill="#000000" stroke="#000000" points="1465.6921,-254.5001 1455.692,-258 1465.692,-261.5001 1465.6921,-254.5001"/>
</g>
<!-- AppComponent -->
<g id="node2" class="node">
<title>AppComponent</title>
<polygon fill="#ffffb3" stroke="#000000" points="2267.9399,-198 2162.0601,-198 2162.0601,-162 2267.9399,-162 2267.9399,-198"/>
<text text-anchor="middle" x="2215" y="-175.8" font-family="Times,serif" font-size="14.00" fill="#000000">AppComponent</text>
</g>
<!-- AppComponent&#45;&gt;AppModule -->
<g id="edge2" class="edge">
<title>AppComponent&#45;&gt;AppModule</title>
<path fill="none" stroke="#000000" d="M2215,-198.0449C2215,-219.6623 2215,-253 2215,-253 2215,-253 1465.6576,-253 1465.6576,-253"/>
<polygon fill="#000000" stroke="#000000" points="1465.6576,-249.5001 1455.6576,-253 1465.6575,-256.5001 1465.6576,-249.5001"/>
</g>
<!-- FabButtonComponent -->
<g id="node3" class="node">
<title>FabButtonComponent</title>
<polygon fill="#ffffb3" stroke="#000000" points="2144.4481,-198 2003.5519,-198 2003.5519,-162 2144.4481,-162 2144.4481,-198"/>
<text text-anchor="middle" x="2074" y="-175.8" font-family="Times,serif" font-size="14.00" fill="#000000">FabButtonComponent</text>
</g>
<!-- FabButtonComponent&#45;&gt;AppModule -->
<g id="edge3" class="edge">
<title>FabButtonComponent&#45;&gt;AppModule</title>
<path fill="none" stroke="#000000" d="M2074,-198.2228C2074,-218.3652 2074,-248 2074,-248 2074,-248 1465.7867,-248 1465.7867,-248"/>
<polygon fill="#000000" stroke="#000000" points="1465.7867,-244.5001 1455.7867,-248 1465.7866,-251.5001 1465.7867,-244.5001"/>
</g>
<!-- LoginComponent -->
<g id="node4" class="node">
<title>LoginComponent</title>
<polygon fill="#ffffb3" stroke="#000000" points="1985.2758,-198 1870.7242,-198 1870.7242,-162 1985.2758,-162 1985.2758,-198"/>
<text text-anchor="middle" x="1928" y="-175.8" font-family="Times,serif" font-size="14.00" fill="#000000">LoginComponent</text>
</g>
<!-- LoginComponent&#45;&gt;AppModule -->
<g id="edge4" class="edge">
<title>LoginComponent&#45;&gt;AppModule</title>
<path fill="none" stroke="#000000" d="M1928,-198.2222C1928,-216.8285 1928,-243 1928,-243 1928,-243 1466.0628,-243 1466.0628,-243"/>
<polygon fill="#000000" stroke="#000000" points="1466.0628,-239.5001 1456.0628,-243 1466.0627,-246.5001 1466.0628,-239.5001"/>
</g>
<!-- NotFoundComponent -->
<g id="node5" class="node">
<title>NotFoundComponent</title>
<polygon fill="#ffffb3" stroke="#000000" points="1853.1122,-198 1714.8878,-198 1714.8878,-162 1853.1122,-162 1853.1122,-198"/>
<text text-anchor="middle" x="1784" y="-175.8" font-family="Times,serif" font-size="14.00" fill="#000000">NotFoundComponent</text>
</g>
<!-- NotFoundComponent&#45;&gt;AppModule -->
<g id="edge5" class="edge">
<title>NotFoundComponent&#45;&gt;AppModule</title>
<path fill="none" stroke="#000000" d="M1784,-198.0336C1784,-215.0597 1784,-238 1784,-238 1784,-238 1465.7245,-238 1465.7245,-238"/>
<polygon fill="#000000" stroke="#000000" points="1465.7245,-234.5001 1455.7245,-238 1465.7244,-241.5001 1465.7245,-234.5001"/>
</g>
<!-- SnifferDataDetailComponent -->
<g id="node6" class="node">
<title>SnifferDataDetailComponent</title>
<polygon fill="#ffffb3" stroke="#000000" points="1697.3361,-198 1516.6639,-198 1516.6639,-162 1697.3361,-162 1697.3361,-198"/>
<text text-anchor="middle" x="1607" y="-175.8" font-family="Times,serif" font-size="14.00" fill="#000000">SnifferDataDetailComponent</text>
</g>
<!-- SnifferDataDetailComponent&#45;&gt;AppModule -->
<g id="edge6" class="edge">
<title>SnifferDataDetailComponent&#45;&gt;AppModule</title>
<path fill="none" stroke="#000000" d="M1607,-198.2396C1607,-213.5706 1607,-233 1607,-233 1607,-233 1465.8781,-233 1465.8781,-233"/>
<polygon fill="#000000" stroke="#000000" points="1465.8782,-229.5001 1455.8781,-233 1465.8781,-236.5001 1465.8782,-229.5001"/>
</g>
<!-- SnifferDataListComponent -->
<g id="node7" class="node">
<title>SnifferDataListComponent</title>
<polygon fill="#ffffb3" stroke="#000000" points="1498.4073,-198 1329.5927,-198 1329.5927,-162 1498.4073,-162 1498.4073,-198"/>
<text text-anchor="middle" x="1414" y="-175.8" font-family="Times,serif" font-size="14.00" fill="#000000">SnifferDataListComponent</text>
</g>
<!-- SnifferDataListComponent&#45;&gt;AppModule -->
<g id="edge7" class="edge">
<title>SnifferDataListComponent&#45;&gt;AppModule</title>
<path fill="none" stroke="#000000" d="M1414,-198.1061C1414,-198.1061 1414,-216.991 1414,-216.991"/>
<polygon fill="#000000" stroke="#000000" points="1410.5001,-216.9909 1414,-226.991 1417.5001,-216.991 1410.5001,-216.9909"/>
</g>
<!-- SnifferFormComponent -->
<g id="node8" class="node">
<title>SnifferFormComponent</title>
<polygon fill="#ffffb3" stroke="#000000" points="1312.0365,-198 1161.9635,-198 1161.9635,-162 1312.0365,-162 1312.0365,-198"/>
<text text-anchor="middle" x="1237" y="-175.8" font-family="Times,serif" font-size="14.00" fill="#000000">SnifferFormComponent</text>
</g>
<!-- SnifferFormComponent&#45;&gt;AppModule -->
<g id="edge8" class="edge">
<title>SnifferFormComponent&#45;&gt;AppModule</title>
<path fill="none" stroke="#000000" d="M1237,-198.2396C1237,-213.5706 1237,-233 1237,-233 1237,-233 1362.0535,-233 1362.0535,-233"/>
<polygon fill="#000000" stroke="#000000" points="1362.0535,-236.5001 1372.0535,-233 1362.0534,-229.5001 1362.0535,-236.5001"/>
</g>
<!-- SnifferTokenFormComponent -->
<g id="node9" class="node">
<title>SnifferTokenFormComponent</title>
<polygon fill="#ffffb3" stroke="#000000" points="1144.3032,-198 957.6968,-198 957.6968,-162 1144.3032,-162 1144.3032,-198"/>
<text text-anchor="middle" x="1051" y="-175.8" font-family="Times,serif" font-size="14.00" fill="#000000">SnifferTokenFormComponent</text>
</g>
<!-- SnifferTokenFormComponent&#45;&gt;AppModule -->
<g id="edge9" class="edge">
<title>SnifferTokenFormComponent&#45;&gt;AppModule</title>
<path fill="none" stroke="#000000" d="M1051,-198.0336C1051,-215.0597 1051,-238 1051,-238 1051,-238 1362.0047,-238 1362.0047,-238"/>
<polygon fill="#000000" stroke="#000000" points="1362.0047,-241.5001 1372.0047,-238 1362.0046,-234.5001 1362.0047,-241.5001"/>
</g>
<!-- SnifferTokenListComponent -->
<g id="node10" class="node">
<title>SnifferTokenListComponent</title>
<polygon fill="#ffffb3" stroke="#000000" points="939.7478,-198 762.2522,-198 762.2522,-162 939.7478,-162 939.7478,-198"/>
<text text-anchor="middle" x="851" y="-175.8" font-family="Times,serif" font-size="14.00" fill="#000000">SnifferTokenListComponent</text>
</g>
<!-- SnifferTokenListComponent&#45;&gt;AppModule -->
<g id="edge10" class="edge">
<title>SnifferTokenListComponent&#45;&gt;AppModule</title>
<path fill="none" stroke="#000000" d="M851,-198.2222C851,-216.8285 851,-243 851,-243 851,-243 1362.1435,-243 1362.1435,-243"/>
<polygon fill="#000000" stroke="#000000" points="1362.1435,-246.5001 1372.1435,-243 1362.1434,-239.5001 1362.1435,-246.5001"/>
</g>
<!-- SniffersListComponent -->
<g id="node11" class="node">
<title>SniffersListComponent</title>
<polygon fill="#ffffb3" stroke="#000000" points="743.9256,-198 596.0744,-198 596.0744,-162 743.9256,-162 743.9256,-198"/>
<text text-anchor="middle" x="670" y="-175.8" font-family="Times,serif" font-size="14.00" fill="#000000">SniffersListComponent</text>
</g>
<!-- SniffersListComponent&#45;&gt;AppModule -->
<g id="edge11" class="edge">
<title>SniffersListComponent&#45;&gt;AppModule</title>
<path fill="none" stroke="#000000" d="M670,-198.2228C670,-218.3652 670,-248 670,-248 670,-248 1362.1367,-248 1362.1367,-248"/>
<polygon fill="#000000" stroke="#000000" points="1362.1368,-251.5001 1372.1367,-248 1362.1367,-244.5001 1362.1368,-251.5001"/>
</g>
<!-- AppComponent  -->
<g id="node15" class="node">
<title>AppComponent </title>
<polygon fill="#80b1d3" stroke="#000000" points="1468.439,-328 1359.561,-328 1359.561,-292 1468.439,-292 1468.439,-328"/>
<text text-anchor="middle" x="1414" y="-305.8" font-family="Times,serif" font-size="14.00" fill="#000000">AppComponent </text>
</g>
<!-- AppModule&#45;&gt;AppComponent  -->
<g id="edge14" class="edge">
<title>AppModule&#45;&gt;AppComponent </title>
<path fill="none" stroke="#000000" stroke-dasharray="1,5" d="M1414,-263.1061C1414,-263.1061 1414,-281.991 1414,-281.991"/>
<polygon fill="#000000" stroke="#000000" points="1410.5001,-281.9909 1414,-291.991 1417.5001,-281.991 1410.5001,-281.9909"/>
</g>
<!-- AppRoutingModule -->
<g id="node13" class="node">
<title>AppRoutingModule</title>
<polygon fill="#8dd3c7" stroke="#000000" points="572.2744,-198 569.2744,-202 548.2744,-202 545.2744,-198 443.7256,-198 443.7256,-162 572.2744,-162 572.2744,-198"/>
<text text-anchor="middle" x="508" y="-175.8" font-family="Times,serif" font-size="14.00" fill="#000000">AppRoutingModule</text>
</g>
<!-- AppRoutingModule&#45;&gt;AppModule -->
<g id="edge12" class="edge">
<title>AppRoutingModule&#45;&gt;AppModule</title>
<path fill="none" stroke="#000000" d="M508,-198.0449C508,-219.6623 508,-253 508,-253 508,-253 1362.1188,-253 1362.1188,-253"/>
<polygon fill="#000000" stroke="#000000" points="1362.1188,-256.5001 1372.1188,-253 1362.1187,-249.5001 1362.1188,-256.5001"/>
</g>
<!-- SharedModule -->
<g id="node14" class="node">
<title>SharedModule</title>
<polygon fill="#8dd3c7" stroke="#000000" points="425.4231,-198 422.4231,-202 401.4231,-202 398.4231,-198 326.5769,-198 326.5769,-162 425.4231,-162 425.4231,-198"/>
<text text-anchor="middle" x="376" y="-175.8" font-family="Times,serif" font-size="14.00" fill="#000000">SharedModule</text>
</g>
<!-- SharedModule&#45;&gt;AppModule -->
<g id="edge13" class="edge">
<title>SharedModule&#45;&gt;AppModule</title>
<path fill="none" stroke="#000000" d="M376,-198.0908C376,-221.1328 376,-258 376,-258 376,-258 1362.0236,-258 1362.0236,-258"/>
<polygon fill="#000000" stroke="#000000" points="1362.0236,-261.5001 1372.0236,-258 1362.0235,-254.5001 1362.0236,-261.5001"/>
</g>
<!-- AppToolbarComponent  -->
<g id="node20" class="node">
<title>AppToolbarComponent </title>
<polygon fill="#fb8072" stroke="#000000" points="600.7576,-122 447.2424,-122 447.2424,-86 600.7576,-86 600.7576,-122"/>
<text text-anchor="middle" x="524" y="-99.8" font-family="Times,serif" font-size="14.00" fill="#000000">AppToolbarComponent </text>
</g>
<!-- SharedModule&#45;&gt;AppToolbarComponent  -->
<g id="edge18" class="edge">
<title>SharedModule&#45;&gt;AppToolbarComponent </title>
<path fill="none" stroke="#000000" stroke-dasharray="5,2" d="M425.2401,-180C431.9825,-180 436.6475,-180 436.6475,-180 436.6475,-180 436.6475,-104 436.6475,-104 436.6475,-104 437.7186,-104 437.7186,-104"/>
<polygon fill="#000000" stroke="#000000" points="437.3586,-107.5001 447.3586,-104 437.3586,-100.5001 437.3586,-107.5001"/>
</g>
<!-- NotifierModule  -->
<g id="node21" class="node">
<title>NotifierModule </title>
<polygon fill="#fb8072" stroke="#000000" points="429.8646,-122 322.1354,-122 322.1354,-86 429.8646,-86 429.8646,-122"/>
<text text-anchor="middle" x="376" y="-99.8" font-family="Times,serif" font-size="14.00" fill="#000000">NotifierModule </text>
</g>
<!-- SharedModule&#45;&gt;NotifierModule  -->
<g id="edge19" class="edge">
<title>SharedModule&#45;&gt;NotifierModule </title>
<path fill="none" stroke="#000000" stroke-dasharray="5,2" d="M359.5963,-161.9891C359.5963,-161.9891 359.5963,-132.145 359.5963,-132.145"/>
<polygon fill="#000000" stroke="#000000" points="363.0964,-132.145 359.5963,-122.145 356.0964,-132.1451 363.0964,-132.145"/>
</g>
<!-- NotifierComponent -->
<g id="node16" class="node">
<title>NotifierComponent</title>
<polygon fill="#ffffb3" stroke="#000000" points="2757.6471,-122 2632.3529,-122 2632.3529,-86 2757.6471,-86 2757.6471,-122"/>
<text text-anchor="middle" x="2695" y="-99.8" font-family="Times,serif" font-size="14.00" fill="#000000">NotifierComponent</text>
</g>
<!-- NotifierModule -->
<g id="node17" class="node">
<title>NotifierModule</title>
<polygon fill="#8dd3c7" stroke="#000000" points="2667.8641,-198 2664.8641,-202 2643.8641,-202 2640.8641,-198 2564.1359,-198 2564.1359,-162 2667.8641,-162 2667.8641,-198"/>
<text text-anchor="middle" x="2616" y="-175.8" font-family="Times,serif" font-size="14.00" fill="#000000">NotifierModule</text>
</g>
<!-- NotifierComponent&#45;&gt;NotifierModule -->
<g id="edge15" class="edge">
<title>NotifierComponent&#45;&gt;NotifierModule</title>
<path fill="none" stroke="#000000" d="M2650.0544,-122.0109C2650.0544,-122.0109 2650.0544,-151.855 2650.0544,-151.855"/>
<polygon fill="#000000" stroke="#000000" points="2646.5544,-151.8549 2650.0544,-161.855 2653.5544,-151.855 2646.5544,-151.8549"/>
</g>
<!-- NotifierService -->
<g id="node18" class="node">
<title>NotifierService</title>
<ellipse fill="#fdb462" stroke="#000000" cx="2537" cy="-104" rx="70.6181" ry="18"/>
<text text-anchor="middle" x="2537" y="-99.8" font-family="Times,serif" font-size="14.00" fill="#000000">NotifierService</text>
</g>
<!-- NotifierService&#45;&gt;NotifierModule -->
<g id="edge16" class="edge">
<title>NotifierService&#45;&gt;NotifierModule</title>
<path fill="none" stroke="#000000" d="M2585.8135,-117.2382C2585.8135,-117.2382 2585.8135,-151.7901 2585.8135,-151.7901"/>
<polygon fill="#000000" stroke="#000000" points="2582.3136,-151.79 2585.8135,-161.7901 2589.3136,-151.7901 2582.3136,-151.79"/>
</g>
<!-- AppToolbarComponent -->
<g id="node19" class="node">
<title>AppToolbarComponent</title>
<polygon fill="#ffffb3" stroke="#000000" points="774.7576,-122 625.2424,-122 625.2424,-86 774.7576,-86 774.7576,-122"/>
<text text-anchor="middle" x="700" y="-99.8" font-family="Times,serif" font-size="14.00" fill="#000000">AppToolbarComponent</text>
</g>
<!-- AppToolbarComponent&#45;&gt;SharedModule -->
<g id="edge17" class="edge">
<title>AppToolbarComponent&#45;&gt;SharedModule</title>
<path fill="none" stroke="#000000" d="M684.4169,-122.1097C684.4169,-131.897 684.4169,-142 684.4169,-142 684.4169,-142 392.4037,-142 392.4037,-142 392.4037,-142 392.4037,-151.8903 392.4037,-151.8903"/>
<polygon fill="#000000" stroke="#000000" points="388.9038,-151.8903 392.4037,-161.8903 395.9038,-151.8904 388.9038,-151.8903"/>
</g>
<!-- ParseService -->
<g id="node22" class="node">
<title>ParseService</title>
<ellipse fill="#fdb462" stroke="#000000" cx="237" cy="-104" rx="60.8082" ry="18"/>
<text text-anchor="middle" x="237" y="-99.8" font-family="Times,serif" font-size="14.00" fill="#000000">ParseService</text>
</g>
<!-- ParseService&#45;&gt;SharedModule -->
<g id="edge20" class="edge">
<title>ParseService&#45;&gt;SharedModule</title>
<path fill="none" stroke="#000000" d="M237,-122.0267C237,-142.7672 237,-174 237,-174 237,-174 316.6024,-174 316.6024,-174"/>
<polygon fill="#000000" stroke="#000000" points="316.6025,-177.5001 326.6024,-174 316.6024,-170.5001 316.6025,-177.5001"/>
</g>
<!-- SharedService -->
<g id="node23" class="node">
<title>SharedService</title>
<ellipse fill="#fdb462" stroke="#000000" cx="91" cy="-104" rx="66.6113" ry="18"/>
<text text-anchor="middle" x="91" y="-99.8" font-family="Times,serif" font-size="14.00" fill="#000000">SharedService</text>
</g>
<!-- SharedService&#45;&gt;SharedModule -->
<g id="edge21" class="edge">
<title>SharedService&#45;&gt;SharedModule</title>
<path fill="none" stroke="#000000" d="M91,-122.1985C91,-146.3563 91,-186 91,-186 91,-186 316.6822,-186 316.6822,-186"/>
<polygon fill="#000000" stroke="#000000" points="316.6822,-189.5001 326.6822,-186 316.6821,-182.5001 316.6822,-189.5001"/>
</g>
</g>
</svg>
